<?xml version="1.0" encoding="UTF-8" standalone="no"?>
<!-- Created with Inkscape (http://www.inkscape.org/) -->

<svg
   xmlns:dc="http://purl.org/dc/elements/1.1/"
   xmlns:cc="http://creativecommons.org/ns#"
   xmlns:rdf="http://www.w3.org/1999/02/22-rdf-syntax-ns#"
   xmlns:svg="http://www.w3.org/2000/svg"
   xmlns="http://www.w3.org/2000/svg"
   xmlns:xlink="http://www.w3.org/1999/xlink"
   xmlns:sodipodi="http://sodipodi.sourceforge.net/DTD/sodipodi-0.dtd"
   xmlns:inkscape="http://www.inkscape.org/namespaces/inkscape"
   width="627.42859"
   height="627.42859"
   id="svg2"
   version="1.1"
   inkscape:version="0.48.3.1 r9886"
   sodipodi:docname="app_icon.svg"
   inkscape:export-filename="/home/plunkett/crafts/android/episodilyzer/app/src/main/res/drawable-xxxhdpi/splash_icon.png"
   inkscape:export-xdpi="61.970001"
   inkscape:export-ydpi="61.970001">
  <defs
     id="defs4">
    <linearGradient
       id="linearGradient3984">
      <stop
         id="stop3986"
         offset="0"
         style="stop-color:#ffffff;stop-opacity:0.51937985;" />
      <stop
         id="stop3988"
         offset="1"
         style="stop-color:#ffffff;stop-opacity:0;" />
    </linearGradient>
    <linearGradient
       id="linearGradient3952">
      <stop
         id="stop3954"
         offset="0"
         style="stop-color:#ffffff;stop-opacity:1;" />
      <stop
         id="stop3956"
         offset="1"
         style="stop-color:#bbbbbb;stop-opacity:0;" />
    </linearGradient>
    <linearGradient
       id="linearGradient3944">
      <stop
         style="stop-color:#bbbbbb;stop-opacity:1;"
         offset="0"
         id="stop3946" />
      <stop
         style="stop-color:#bbbbbb;stop-opacity:0;"
         offset="1"
         id="stop3948" />
    </linearGradient>
    <linearGradient
       id="linearGradient3899">
      <stop
         style="stop-color:#555555;stop-opacity:1;"
         offset="0"
         id="stop3901" />
      <stop
         style="stop-color:#555555;stop-opacity:0;"
         offset="1"
         id="stop3903" />
    </linearGradient>
    <linearGradient
       inkscape:collect="always"
       xlink:href="#linearGradient3899"
       id="linearGradient4009"
       gradientUnits="userSpaceOnUse"
       x1="408.47769"
       y1="446.47992"
       x2="367.21429"
       y2="431.47992" />
    <linearGradient
       inkscape:collect="always"
       xlink:href="#linearGradient3984"
       id="linearGradient4011"
       gradientUnits="userSpaceOnUse"
       x1="265.25107"
       y1="657.41516"
       x2="331.46704"
       y2="523.45972" />
    <linearGradient
       inkscape:collect="always"
       xlink:href="#linearGradient3952"
       id="linearGradient4013"
       gradientUnits="userSpaceOnUse"
       x1="459.19244"
       y1="433.1655"
       x2="369.67844"
       y2="554.38385" />
  </defs>
  <sodipodi:namedview
     id="base"
     pagecolor="#ffffff"
     bordercolor="#666666"
     borderopacity="1.0"
     inkscape:pageopacity="0.0"
     inkscape:pageshadow="2"
     inkscape:zoom="0.36338797"
     inkscape:cx="800.26927"
     inkscape:cy="83.95088"
     inkscape:document-units="px"
     inkscape:current-layer="layer1"
     showgrid="false"
     inkscape:snap-bbox="true"
     inkscape:snap-bbox-edge-midpoints="true"
     inkscape:snap-global="false"
     fit-margin-top="0"
     fit-margin-left="0"
     fit-margin-right="0"
     fit-margin-bottom="0" />
  <metadata
     id="metadata7">
    <rdf:RDF>
      <cc:Work
         rdf:about="">
        <dc:format>image/svg+xml</dc:format>
        <dc:type
           rdf:resource="http://purl.org/dc/dcmitype/StillImage" />
        <dc:title></dc:title>
      </cc:Work>
    </rdf:RDF>
  </metadata>
  <g
     inkscape:label="Layer 1"
     inkscape:groupmode="layer"
     id="layer1"
     transform="translate(-223.26784,-181.50505)">
    <g
       id="g3990"
       transform="matrix(2.9047619,0,0,2.9047619,-583.18141,-939.19202)">
      <rect
         style="fill:#555555;fill-opacity:1;fill-rule:evenodd;stroke:none"
         id="rect3929"
         width="72.0886"
         height="11.713957"
         x="524.72375"
         y="-115.62556"
         ry="5.8569784"
         transform="matrix(0.5,0.8660254,-0.8660254,0.5,0,0)"
         rx="5.8569784" />
      <rect
         rx="5.8569784"
         transform="matrix(-0.5,0.8660254,0.8660254,0.5,0,0)"
         ry="5.8569784"
         y="551.9873"
         x="139.27733"
         height="11.713957"
         width="72.0886"
         id="rect3931"
         style="fill:#555555;fill-opacity:1;fill-rule:evenodd;stroke:none" />
      <path
         id="rect3888"
         d="M 357.46875,400.75 C 356.87013,400.76617 356.27188,400.8871 355.6875,401.09375 354.30915,402.91351 354.06446,405.42371 355.28125,407.53125 L 385.46875,459.8125 C 386.90981,462.30849 389.88346,463.37465 392.5,462.4375 392.5053,462.4305 392.49473,462.41327 392.5,462.40625 393.86428,460.58803 394.11836,458.06818 392.90625,455.96875 L 362.71875,403.6875 C 361.60336,401.75559 359.54493,400.69392 357.46875,400.75 z"
         style="fill:#161817;fill-opacity:1;fill-rule:evenodd;stroke:none"
         inkscape:connector-curvature="0" />
      <path
         id="rect3890"
         d="M 407.40625,400.75 C 406.8671,400.78769 406.35064,400.91111 405.84375,401.09375 405.70307,401.28152 405.58911,401.47903 405.46875,401.6875 L 375.28125,453.96875 C 373.65887,456.7788 374.62745,460.34637 377.4375,461.96875 378.99654,462.86886 380.77971,462.96979 382.34375,462.40625 382.47586,462.22753 382.60488,462.00974 382.71875,461.8125 L 412.90625,409.53125 C 414.52863,406.7212 413.56005,403.15363 410.75,401.53125 409.69623,400.92286 408.53068,400.6714 407.40625,400.75 z"
         style="fill:#161817;fill-opacity:1;fill-rule:evenodd;stroke:none"
         inkscape:connector-curvature="0" />
      <path
         transform="matrix(0.84310727,0,0,1.2138878,-92.54997,-92.645519)"
         d="M 608.23811,457.95053 C 608.23811,473.39716 589.89328,485.91913 567.26379,485.91913 544.63431,485.91913 526.28948,473.39716 526.28948,457.95053 526.28948,442.5039 544.63431,429.98193 567.26379,429.98193 589.89328,429.98193 608.23811,442.5039 608.23811,457.95053 z"
         sodipodi:ry="27.968599"
         sodipodi:rx="40.974312"
         sodipodi:cy="457.95053"
         sodipodi:cx="567.26379"
         id="path3886"
         style="fill:#161817;fill-opacity:1;fill-rule:evenodd;stroke:none"
         sodipodi:type="arc" />
      <path
         inkscape:connector-curvature="0"
         id="path3915"
         d="M 385.71875,429.3125 C 378.9886,429.3125 372.71707,431.1973 367.40625,434.46875 370.56889,433.39845 373.96755,432.8125 377.5,432.8125 394.60664,432.8125 408.46875,446.438 408.46875,463.25 408.46875,480.062 394.60664,493.6875 377.5,493.6875 373.96755,493.6875 370.56889,493.10155 367.40625,492.03125 372.71707,495.3027 378.9886,497.21875 385.71875,497.21875 404.79784,497.21875 420.25,482.00048 420.25,463.25 420.25,444.49952 404.79784,429.3125 385.71875,429.3125 z"
         style="fill:url(#linearGradient4009);fill-opacity:1;fill-rule:evenodd;stroke:none" />
      <rect
         ry="6.8705316"
         y="445.68112"
         x="300.25253"
         height="143.19635"
         width="170.75763"
         id="rect3087"
         style="fill:#515352;fill-opacity:1;fill-rule:evenodd;stroke:none" />
      <rect
         style="fill:#292c2a;fill-opacity:1;fill-rule:evenodd;stroke:none"
         id="rect3089"
         width="166.71703"
         height="139.55539"
         x="300.25253"
         y="449.32208"
         ry="6.6958385" />
      <path
         id="rect3973"
         d="M 300.25,515.4375 300.25,582.1875 C 300.25,585.89699 303.22801,588.875 306.9375,588.875 L 431.6875,588.875 300.25,515.4375 z"
         style="fill:url(#linearGradient4011);fill-opacity:1;fill-rule:evenodd;stroke:none"
         inkscape:connector-curvature="0" />
      <path
         sodipodi:nodetypes="czczczczc"
         inkscape:connector-curvature="0"
         id="rect3862"
         d="M 322.7178,467.11893 C 322.7178,467.11893 353.95841,461.11893 385.63135,461.11893 417.30429,461.11893 448.54491,467.11893 448.54491,467.11893 448.54491,467.11893 454.54491,488.57069 454.54491,517.2793 454.54491,545.98791 448.54491,567.43967 448.54491,567.43967 448.54491,567.43967 415.78906,573.43967 385.63135,573.43967 355.47364,573.43967 322.7178,567.43967 322.7178,567.43967 322.7178,567.43967 316.7178,545.73537 316.7178,517.2793 316.7178,488.82323 322.7178,467.11893 322.7178,467.11893 z"
         style="fill:#bbbbbb;fill-opacity:1;fill-rule:evenodd;stroke:none" />
      <g
         transform="translate(-180,0)"
         id="g3875">
        <path
           sodipodi:type="arc"
           style="fill:#111111;fill-opacity:1;fill-rule:evenodd;stroke:none"
           id="path3865"
           sodipodi:cx="537.77997"
           sodipodi:cy="546.02319"
           sodipodi:rx="10.227795"
           sodipodi:ry="10.227795"
           d="M 548.00776,546.02319 C 548.00776,551.67185 543.42862,556.25099 537.77997,556.25099 532.13131,556.25099 527.55217,551.67185 527.55217,546.02319 527.55217,540.37454 532.13131,535.7954 537.77997,535.7954 543.42862,535.7954 548.00776,540.37454 548.00776,546.02319 z" />
        <path
           d="M 548.00776,546.02319 C 548.00776,551.67185 543.42862,556.25099 537.77997,556.25099 532.13131,556.25099 527.55217,551.67185 527.55217,546.02319 527.55217,540.37454 532.13131,535.7954 537.77997,535.7954 543.42862,535.7954 548.00776,540.37454 548.00776,546.02319 z"
           sodipodi:ry="10.227795"
           sodipodi:rx="10.227795"
           sodipodi:cy="546.02319"
           sodipodi:cx="537.77997"
           id="path3867"
           style="fill:#111111;fill-opacity:1;fill-rule:evenodd;stroke:none"
           sodipodi:type="arc"
           transform="translate(28,-28)" />
        <path
           transform="translate(0,-56)"
           sodipodi:type="arc"
           style="fill:#111111;fill-opacity:1;fill-rule:evenodd;stroke:none"
           id="path3869"
           sodipodi:cx="537.77997"
           sodipodi:cy="546.02319"
           sodipodi:rx="10.227795"
           sodipodi:ry="10.227795"
           d="M 548.00776,546.02319 C 548.00776,551.67185 543.42862,556.25099 537.77997,556.25099 532.13131,556.25099 527.55217,551.67185 527.55217,546.02319 527.55217,540.37454 532.13131,535.7954 537.77997,535.7954 543.42862,535.7954 548.00776,540.37454 548.00776,546.02319 z" />
        <path
           d="M 548.00776,546.02319 C 548.00776,551.67185 543.42862,556.25099 537.77997,556.25099 532.13131,556.25099 527.55217,551.67185 527.55217,546.02319 527.55217,540.37454 532.13131,535.7954 537.77997,535.7954 543.42862,535.7954 548.00776,540.37454 548.00776,546.02319 z"
           sodipodi:ry="10.227795"
           sodipodi:rx="10.227795"
           sodipodi:cy="546.02319"
           sodipodi:cx="537.77997"
           id="path3871"
           style="fill:#111111;fill-opacity:1;fill-rule:evenodd;stroke:none"
           sodipodi:type="arc"
           transform="translate(56,-56)" />
        <path
           transform="translate(56,0)"
           sodipodi:type="arc"
           style="fill:#111111;fill-opacity:1;fill-rule:evenodd;stroke:none"
           id="path3873"
           sodipodi:cx="537.77997"
           sodipodi:cy="546.02319"
           sodipodi:rx="10.227795"
           sodipodi:ry="10.227795"
           d="M 548.00776,546.02319 C 548.00776,551.67185 543.42862,556.25099 537.77997,556.25099 532.13131,556.25099 527.55217,551.67185 527.55217,546.02319 527.55217,540.37454 532.13131,535.7954 537.77997,535.7954 543.42862,535.7954 548.00776,540.37454 548.00776,546.02319 z" />
      </g>
      <path
         id="path3941"
         d="M 385.625,461.125 C 353.95206,461.125 322.71875,467.125 322.71875,467.125 322.71875,467.125 320.51782,475.12893 318.78125,487.75 325.88712,486.59965 333.21011,485.96875 340.71875,485.96875 393.24989,485.96875 437.52882,515.48641 451.09375,555.71875 452.72926,546.68124 454.53125,533.09609 454.53125,517.28125 454.53125,488.57264 448.53125,467.125 448.53125,467.125 448.53125,467.125 417.29794,461.125 385.625,461.125 z"
         style="fill:url(#linearGradient4013);fill-opacity:1;fill-rule:evenodd;stroke:none"
         inkscape:connector-curvature="0" />
    </g>
  </g>
</svg>
