<?xml version="1.0" encoding="UTF-8" standalone="no"?>
<!-- Created with Inkscape (http://www.inkscape.org/) -->

<svg
   xmlns:dc="http://purl.org/dc/elements/1.1/"
   xmlns:cc="http://creativecommons.org/ns#"
   xmlns:rdf="http://www.w3.org/1999/02/22-rdf-syntax-ns#"
   xmlns:svg="http://www.w3.org/2000/svg"
   xmlns="http://www.w3.org/2000/svg"
   xmlns:xlink="http://www.w3.org/1999/xlink"
   xmlns:sodipodi="http://sodipodi.sourceforge.net/DTD/sodipodi-0.dtd"
   xmlns:inkscape="http://www.inkscape.org/namespaces/inkscape"
   width="2048"
   height="1000"
   id="svg2"
   version="1.1"
   inkscape:version="0.48.3.1 r9886"
   sodipodi:docname="feature_graphic.svg"
   inkscape:export-filename="/home/plunkett/crafts/android/episodilyzer/play_store/feature_graphic.png"
   inkscape:export-xdpi="45"
   inkscape:export-ydpi="45">
  <defs
     id="defs4">
    <linearGradient
       id="linearGradient3967">
      <stop
         style="stop-color:#ffffff;stop-opacity:0.62790698;"
         offset="0"
         id="stop3969" />
      <stop
         id="stop3975"
         offset="0.15705128"
         style="stop-color:#ffffff;stop-opacity:0.51162791;" />
      <stop
         id="stop3973"
         offset="0.38141027"
         style="stop-color:#ffffff;stop-opacity:0.34901962;" />
      <stop
         style="stop-color:#ffffff;stop-opacity:0;"
         offset="1"
         id="stop3971" />
    </linearGradient>
    <linearGradient
       id="linearGradient3951">
      <stop
         id="stop3953"
         offset="0"
         style="stop-color:#ffffff;stop-opacity:1;" />
      <stop
         id="stop3955"
         offset="1"
         style="stop-color:#bbbbbb;stop-opacity:0;" />
    </linearGradient>
    <linearGradient
       y2="554.38385"
       x2="369.67844"
       y1="433.1655"
       x1="459.19244"
       gradientUnits="userSpaceOnUse"
       id="linearGradient4013"
       xlink:href="#linearGradient3952"
       inkscape:collect="always" />
    <linearGradient
       y2="523.45972"
       x2="331.46704"
       y1="657.41516"
       x1="265.25107"
       gradientUnits="userSpaceOnUse"
       id="linearGradient4011"
       xlink:href="#linearGradient3984"
       inkscape:collect="always" />
    <linearGradient
       y2="431.47992"
       x2="367.21429"
       y1="446.47992"
       x1="408.47769"
       gradientUnits="userSpaceOnUse"
       id="linearGradient4009"
       xlink:href="#linearGradient3899"
       inkscape:collect="always" />
    <linearGradient
       id="linearGradient3899">
      <stop
         id="stop3901"
         offset="0"
         style="stop-color:#555555;stop-opacity:1;" />
      <stop
         id="stop3903"
         offset="1"
         style="stop-color:#555555;stop-opacity:0;" />
    </linearGradient>
    <linearGradient
       id="linearGradient3944">
      <stop
         id="stop3946"
         offset="0"
         style="stop-color:#bbbbbb;stop-opacity:1;" />
      <stop
         id="stop3948"
         offset="1"
         style="stop-color:#bbbbbb;stop-opacity:0;" />
    </linearGradient>
    <linearGradient
       id="linearGradient3952">
      <stop
         style="stop-color:#ffffff;stop-opacity:1;"
         offset="0"
         id="stop3954" />
      <stop
         style="stop-color:#bbbbbb;stop-opacity:0;"
         offset="1"
         id="stop3956" />
    </linearGradient>
    <linearGradient
       id="linearGradient3984">
      <stop
         style="stop-color:#ffffff;stop-opacity:0.51937985;"
         offset="0"
         id="stop3986" />
      <stop
         style="stop-color:#ffffff;stop-opacity:0;"
         offset="1"
         id="stop3988" />
    </linearGradient>
    <radialGradient
       inkscape:collect="always"
       xlink:href="#linearGradient3952"
       id="radialGradient3935"
       cx="397.14285"
       cy="685.71429"
       fx="397.14285"
       fy="685.71429"
       r="342.85715"
       gradientTransform="matrix(1,0,0,0.33333333,0,457.14287)"
       gradientUnits="userSpaceOnUse" />
    <radialGradient
       inkscape:collect="always"
       xlink:href="#linearGradient3967"
       id="radialGradient3965"
       cx="398.57144"
       cy="688.57141"
       fx="398.57144"
       fy="688.57141"
       r="222.85715"
       gradientTransform="matrix(1,0,0,0.33333332,0,459.04762)"
       gradientUnits="userSpaceOnUse" />
  </defs>
  <sodipodi:namedview
     id="base"
     pagecolor="#ffffff"
     bordercolor="#666666"
     borderopacity="1.0"
     inkscape:pageopacity="0.0"
     inkscape:pageshadow="2"
     inkscape:zoom="0.24748737"
     inkscape:cx="842.65899"
     inkscape:cy="720.03488"
     inkscape:document-units="px"
     inkscape:current-layer="layer1"
     showgrid="false"
     showguides="true"
     inkscape:guide-bbox="true"
     inkscape:snap-bbox="true"
     inkscape:bbox-nodes="false"
     inkscape:snap-page="true"
     inkscape:snap-global="false" />
  <metadata
     id="metadata7">
    <rdf:RDF>
      <cc:Work
         rdf:about="">
        <dc:format>image/svg+xml</dc:format>
        <dc:type
           rdf:resource="http://purl.org/dc/dcmitype/StillImage" />
        <dc:title></dc:title>
      </cc:Work>
    </rdf:RDF>
  </metadata>
  <g
     inkscape:label="Layer 1"
     inkscape:groupmode="layer"
     id="layer1"
     transform="translate(0,-52.362183)">
    <path
       sodipodi:type="arc"
       style="fill:url(#radialGradient3935);fill-opacity:1;fill-rule:evenodd;stroke:none"
       id="path3927"
       sodipodi:cx="397.14285"
       sodipodi:cy="685.71429"
       sodipodi:rx="342.85715"
       sodipodi:ry="114.28571"
       d="M 740,685.71429 C 740,748.83255 586.49763,800.00001 397.14285,800.00001 207.78808,800.00001 54.285706,748.83255 54.285706,685.71429 54.285706,622.59604 207.78808,571.42858 397.14285,571.42858 586.49763,571.42858 740,622.59604 740,685.71429 z"
       transform="translate(40,52.362183)" />
    <rect
       style="fill:#2f3a4b;fill-opacity:1;fill-rule:evenodd;stroke:none"
       id="rect3157"
       width="2048"
       height="1000"
       x="0"
       y="0"
       transform="translate(0,52.362183)"
       ry="6.6958385" />
    <g
       id="g4017"
       transform="matrix(0.58044972,0.28902511,-0.28902511,0.58044972,622.14575,235.30057)">
      <rect
         rx="25.981546"
         ry="25.981546"
         y="-199.06639"
         x="1688.5714"
         height="197.14285"
         width="197.14285"
         id="rect4003"
         style="fill:#7ab974;fill-opacity:1;fill-rule:evenodd;stroke:none" />
      <path
         sodipodi:type="arc"
         style="fill:#2f3a4b;fill-opacity:1;fill-rule:evenodd;stroke:none"
         id="path4007"
         sodipodi:cx="1185"
         sodipodi:cy="-151.42857"
         sodipodi:rx="35"
         sodipodi:ry="35"
         d="M 1220,-151.42857 A 35,35 0 1 1 1150,-151.42857 35,35 0 1 1 1220,-151.42857 z"
         transform="matrix(0.55102041,0,0,0.55102041,1188.1836,-71.05473)" />
      <path
         sodipodi:type="arc"
         style="fill:#2f3a4b;fill-opacity:1;fill-rule:evenodd;stroke:none"
         id="path4009"
         sodipodi:cx="1185"
         sodipodi:cy="-151.42857"
         sodipodi:rx="35"
         sodipodi:ry="35"
         d="M 1220,-151.42857 A 35,35 0 1 1 1150,-151.42857 35,35 0 1 1 1220,-151.42857 z"
         transform="matrix(0.55102041,0,0,0.55102041,1080.1836,36.94527)" />
      <path
         sodipodi:type="arc"
         style="fill:#2f3a4b;fill-opacity:1;fill-rule:evenodd;stroke:none"
         id="path4011"
         sodipodi:cx="1185"
         sodipodi:cy="-151.42857"
         sodipodi:rx="35"
         sodipodi:ry="35"
         d="M 1220,-151.42857 A 35,35 0 1 1 1150,-151.42857 35,35 0 1 1 1220,-151.42857 z"
         transform="matrix(0.55102041,0,0,0.55102041,1080.1836,-71.05473)" />
      <path
         sodipodi:type="arc"
         style="fill:#2f3a4b;fill-opacity:1;fill-rule:evenodd;stroke:none"
         id="path4015"
         sodipodi:cx="1185"
         sodipodi:cy="-151.42857"
         sodipodi:rx="35"
         sodipodi:ry="35"
         d="M 1220,-151.42857 A 35,35 0 1 1 1150,-151.42857 35,35 0 1 1 1220,-151.42857 z"
         transform="matrix(0.55102041,0,0,0.55102041,1188.1836,36.94527)" />
    </g>
    <g
       id="g4033"
       transform="matrix(-0.60979662,0.14901501,-0.14901501,-0.60979662,1471.3483,244.75867)">
      <rect
         rx="25.981546"
         ry="25.981546"
         transform="translate(0,52.362183)"
         y="-251.42857"
         x="1088.5714"
         height="197.14285"
         width="197.14285"
         id="rect3979"
         style="fill:#7ab974;fill-opacity:1;fill-rule:evenodd;stroke:none" />
      <path
         transform="matrix(0.55102041,0,0,0.55102041,534.18365,-17.05473)"
         d="M 1220,-151.42857 C 1220,-132.09861 1204.33,-116.42857 1185,-116.42857 1165.67,-116.42857 1150,-132.09861 1150,-151.42857 1150,-170.75854 1165.67,-186.42857 1185,-186.42857 1204.33,-186.42857 1220,-170.75854 1220,-151.42857 z"
         sodipodi:ry="35"
         sodipodi:rx="35"
         sodipodi:cy="-151.42857"
         sodipodi:cx="1185"
         id="path3983"
         style="fill:#2f3a4b;fill-opacity:1;fill-rule:evenodd;stroke:none"
         sodipodi:type="arc" />
      <path
         sodipodi:type="arc"
         style="fill:#2f3a4b;fill-opacity:1;fill-rule:evenodd;stroke:none"
         id="path3985"
         sodipodi:cx="1185"
         sodipodi:cy="-151.42857"
         sodipodi:rx="35"
         sodipodi:ry="35"
         d="M 1220,-151.42857 C 1220,-132.09861 1204.33,-116.42857 1185,-116.42857 1165.67,-116.42857 1150,-132.09861 1150,-151.42857 1150,-170.75854 1165.67,-186.42857 1185,-186.42857 1204.33,-186.42857 1220,-170.75854 1220,-151.42857 z"
         transform="matrix(0.55102041,0,0,0.55102041,588.18365,-71.05473)" />
      <path
         sodipodi:type="arc"
         style="fill:#2f3a4b;fill-opacity:1;fill-rule:evenodd;stroke:none"
         id="path3987"
         sodipodi:cx="1185"
         sodipodi:cy="-151.42857"
         sodipodi:rx="35"
         sodipodi:ry="35"
         d="M 1220,-151.42857 C 1220,-132.09861 1204.33,-116.42857 1185,-116.42857 1165.67,-116.42857 1150,-132.09861 1150,-151.42857 1150,-170.75854 1165.67,-186.42857 1185,-186.42857 1204.33,-186.42857 1220,-170.75854 1220,-151.42857 z"
         transform="matrix(0.55102041,0,0,0.55102041,480.18365,36.94527)" />
    </g>
    <g
       id="g4024"
       transform="matrix(0.55741049,-0.24139392,0.24139392,0.55741049,978.59856,1079.628)"
       style="stroke:none">
      <rect
         style="fill:#7ab974;fill-opacity:1;fill-rule:evenodd;stroke:#2f3a4b;stroke-width:8.23133087000000074;stroke-miterlimit:4;stroke-opacity:1;stroke-dasharray:none"
         id="rect3989"
         width="197.14285"
         height="197.14285"
         x="1428.5714"
         y="-199.06639"
         ry="25.981546"
         rx="25.981546" />
      <path
         sodipodi:type="arc"
         style="fill:#2f3a4b;fill-opacity:1;fill-rule:evenodd;stroke:none"
         id="path3991"
         sodipodi:cx="1185"
         sodipodi:cy="-151.42857"
         sodipodi:rx="35"
         sodipodi:ry="35"
         d="M 1220,-151.42857 C 1220,-132.09861 1204.33,-116.42857 1185,-116.42857 1165.67,-116.42857 1150,-132.09861 1150,-151.42857 1150,-170.75854 1165.67,-186.42857 1185,-186.42857 1204.33,-186.42857 1220,-170.75854 1220,-151.42857 z"
         transform="matrix(0.55102041,0,0,0.55102041,820.18365,-17.05473)" />
      <path
         transform="matrix(0.55102041,0,0,0.55102041,928.18365,-71.05473)"
         d="M 1220,-151.42857 C 1220,-132.09861 1204.33,-116.42857 1185,-116.42857 1165.67,-116.42857 1150,-132.09861 1150,-151.42857 1150,-170.75854 1165.67,-186.42857 1185,-186.42857 1204.33,-186.42857 1220,-170.75854 1220,-151.42857 z"
         sodipodi:ry="35"
         sodipodi:rx="35"
         sodipodi:cy="-151.42857"
         sodipodi:cx="1185"
         id="path3993"
         style="fill:#2f3a4b;fill-opacity:1;fill-rule:evenodd;stroke:none"
         sodipodi:type="arc" />
      <path
         transform="matrix(0.55102041,0,0,0.55102041,820.18365,36.94527)"
         d="M 1220,-151.42857 C 1220,-132.09861 1204.33,-116.42857 1185,-116.42857 1165.67,-116.42857 1150,-132.09861 1150,-151.42857 1150,-170.75854 1165.67,-186.42857 1185,-186.42857 1204.33,-186.42857 1220,-170.75854 1220,-151.42857 z"
         sodipodi:ry="35"
         sodipodi:rx="35"
         sodipodi:cy="-151.42857"
         sodipodi:cx="1185"
         id="path3995"
         style="fill:#2f3a4b;fill-opacity:1;fill-rule:evenodd;stroke:none"
         sodipodi:type="arc" />
      <path
         transform="matrix(0.55102041,0,0,0.55102041,820.18365,-71.05473)"
         d="M 1220,-151.42857 C 1220,-132.09861 1204.33,-116.42857 1185,-116.42857 1165.67,-116.42857 1150,-132.09861 1150,-151.42857 1150,-170.75854 1165.67,-186.42857 1185,-186.42857 1204.33,-186.42857 1220,-170.75854 1220,-151.42857 z"
         sodipodi:ry="35"
         sodipodi:rx="35"
         sodipodi:cy="-151.42857"
         sodipodi:cx="1185"
         id="path3997"
         style="fill:#2f3a4b;fill-opacity:1;fill-rule:evenodd;stroke:none"
         sodipodi:type="arc" />
      <path
         sodipodi:type="arc"
         style="fill:#2f3a4b;fill-opacity:1;fill-rule:evenodd;stroke:none"
         id="path3999"
         sodipodi:cx="1185"
         sodipodi:cy="-151.42857"
         sodipodi:rx="35"
         sodipodi:ry="35"
         d="M 1220,-151.42857 C 1220,-132.09861 1204.33,-116.42857 1185,-116.42857 1165.67,-116.42857 1150,-132.09861 1150,-151.42857 1150,-170.75854 1165.67,-186.42857 1185,-186.42857 1204.33,-186.42857 1220,-170.75854 1220,-151.42857 z"
         transform="matrix(0.55102041,0,0,0.55102041,928.18365,-17.05473)" />
      <path
         transform="matrix(0.55102041,0,0,0.55102041,928.18365,36.94527)"
         d="M 1220,-151.42857 C 1220,-132.09861 1204.33,-116.42857 1185,-116.42857 1165.67,-116.42857 1150,-132.09861 1150,-151.42857 1150,-170.75854 1165.67,-186.42857 1185,-186.42857 1204.33,-186.42857 1220,-170.75854 1220,-151.42857 z"
         sodipodi:ry="35"
         sodipodi:rx="35"
         sodipodi:cy="-151.42857"
         sodipodi:cx="1185"
         id="path4001"
         style="fill:#2f3a4b;fill-opacity:1;fill-rule:evenodd;stroke:none"
         sodipodi:type="arc" />
    </g>
    <path
       style="font-size:144px;font-style:normal;font-variant:normal;font-weight:bold;font-stretch:normal;line-height:125%;letter-spacing:0px;word-spacing:0px;fill:#2f3a4b;fill-opacity:1;stroke:none;font-family:Droid Sans;-inkscape-font-specification:Droid Sans Bold"
       d="M 1002.7187,485.46875 C 992.56856,483.9366 981.96007,490.4537 980,500.71875 977.10271,512.11392 985.70756,524.34738 997.46875,525.15625 1008.6595,526.94084 1021.8155,519.87223 1022.5,507.75 1024.2902,496.28454 1014.4961,484.69705 1002.7187,485.46875 z M 1378.9688,485.46875 C 1368.8186,483.9366 1358.2101,490.4537 1356.25,500.71875 1353.3527,512.11392 1361.9576,524.34738 1373.7188,525.15625 1384.9095,526.94084 1398.0655,519.87223 1398.75,507.75 1400.5402,496.28454 1390.7461,484.69705 1378.9688,485.46875 z M 1299.7188,487.5 C 1299.9378,501.39532 1299.438,515.70785 1299.8125,529.34375 1281.1031,517.57561 1252.6831,525.7423 1244.625,546.6875 1234.4341,568.16291 1235.2524,593.89448 1242.4688,616.1875 1248.3569,632.03973 1264.1072,644.7525 1281.5938,642.8125 1290.12,642.20926 1298.5397,638.85279 1304.6875,632.75 1305.9793,638.0671 1311.1087,642.78142 1316.8438,640.96875 1324.5104,640.96875 1332.1771,640.96875 1339.8438,640.96875 1339.8437,589.14583 1339.8438,537.32292 1339.8438,485.5 1326.4687,485.5 1313.0938,485.5 1299.7188,485.5 L 1299.7188,486.5 1299.7188,487.5 z M 1414.8125,487.5 C 1414.8125,538.65625 1414.8125,589.8125 1414.8125,640.96875 1428.1875,640.96875 1441.5625,640.96875 1454.9375,640.96875 1454.9375,589.14583 1454.9375,537.32292 1454.9375,485.5 1441.5625,485.5 1428.1875,485.5 1414.8125,485.5 L 1414.8125,486.5 1414.8125,487.5 z M 762.65625,496.15625 C 762.65625,544.42708 762.65625,592.69792 762.65625,640.96875 792.53125,640.96875 822.40625,640.96875 852.28125,640.96875 852.28125,629.10417 852.28125,617.23958 852.28125,605.375 835.92708,605.375 819.57292,605.375 803.21875,605.375 803.21875,597.78125 803.21875,590.1875 803.21875,582.59375 818.4375,582.59375 833.65625,582.59375 848.875,582.59375 848.875,570.79167 848.875,558.98958 848.875,547.1875 833.65625,547.1875 818.4375,547.1875 803.21875,547.1875 803.90944,541.66985 801.85098,533.40306 804.21875,529.5625 820.23958,529.5625 836.26042,529.5625 852.28125,529.5625 852.28125,517.76042 852.28125,505.95833 852.28125,494.15625 822.40625,494.15625 792.53125,494.15625 762.65625,494.15625 L 762.65625,495.15625 762.65625,496.15625 z M 926.65625,523.90625 C 917.66049,523.50382 908.45282,528.20277 902.125,533.15625 901.079,528.00766 895.88773,524.05024 890.625,525.875 882.51042,525.875 874.39583,525.875 866.28125,525.875 866.28125,579.36458 866.28125,632.85417 866.28125,686.34375 879.69792,686.34375 893.11458,686.34375 906.53125,686.34375 905.88128,670.03573 907.06343,653.71209 906.28125,637.40625 924.9383,649.23663 953.56272,640.97302 961.53125,619.90625 971.82859,597.89535 970.98746,571.52362 963.03125,548.96875 956.99254,534.56298 942.87613,522.91941 926.65625,523.90625 z M 1076.5938,523.9375 C 1060.0684,523.54329 1040.4346,530.24221 1034.6875,547.09375 1028.5508,564.14594 1036.6946,585.3314 1053.625,592.40625 1062.0771,597.35804 1072.8467,599.36526 1079.5,606.875 1077.9982,611.80697 1071,609.94433 1067.125,609.9375 1054.9956,608.79002 1043.7619,603.36854 1033.0312,598 1033.0312,610.25 1033.0312,622.5 1033.0312,634.75 1054.538,644.6959 1081.0391,646.5177 1102.5312,635.65625 1121.2723,624.64344 1125.8014,594.98635 1109.4062,579.96875 1100.069,569.85647 1085.4886,568.14467 1074.7188,560.28125 1072.1611,559.21284 1072.569,556.76623 1075.25,556.78125 1086.6063,556.0673 1096.7026,561.91526 1106.7812,566.40625 1111.1676,556.11943 1115.565,545.83721 1119.9062,535.53125 1106.5463,528.45428 1091.9133,523.52008 1076.5938,523.9375 z M 1176.75,523.9375 C 1153.154,522.73782 1130.0483,540.04775 1126.2371,563.62906 1120.5919,586.89698 1124.3939,615.0769 1143.2812,631.375 1166.2977,650.46694 1206.7952,645.78683 1221.75,618.875 1234.1704,595.53152 1233.4536,564.55181 1218.0938,542.8125 1208.4159,530.3846 1192.5502,523.34465 1176.75,523.9375 z M 1705.2812,524 C 1681.8422,523.49658 1660.3024,542.3678 1657.0938,565.46875 1652.1115,588.01351 1655.3952,615.39225 1674.0312,630.75 1693.2405,645.85351 1720.9066,645.58495 1743,637.78125 1746.8457,635.56885 1754.2344,634.96436 1752.5312,629 1752.5312,618.70833 1752.5313,608.41667 1752.5312,598.125 1737.8369,605.86005 1720.1747,614.09359 1703.5938,607.5 1699.6747,605.06646 1697.2376,600.84636 1696.25,596.4375 1716.9271,596.4375 1737.6042,596.4375 1758.2812,596.4375 1759.387,575.92848 1759.5669,551.80131 1743.5312,536.6875 1733.4419,527.08298 1718.9997,523.32187 1705.2812,524 z M 1826.625,524.03125 C 1818.4355,524.55683 1810.5955,528.52726 1805,534.46875 1804.3769,528.784 1799.1097,524.30532 1793.3125,525.875 1785.6771,525.875 1778.0417,525.875 1770.4062,525.875 1770.4062,564.23958 1770.4063,602.60417 1770.4062,640.96875 1783.75,640.96875 1797.0938,640.96875 1810.4375,640.96875 1811.7399,617.65775 1808.2368,593.90233 1812.3438,570.875 1817.3355,560.69926 1830.7131,561.15284 1840.1875,563.53125 1844.435,564.59434 1846.7727,559.77662 1845.125,556.3125 1845.125,546.3125 1845.125,536.3125 1845.125,526.3125 1839.2194,524.13397 1832.8869,523.72701 1826.625,524.03125 z M 981.03125,527.875 C 981.03125,565.57292 981.03125,603.27083 981.03125,640.96875 994.40625,640.96875 1007.7812,640.96875 1021.1562,640.96875 1021.1562,602.60417 1021.1562,564.23958 1021.1562,525.875 1007.7812,525.875 994.40625,525.875 981.03125,525.875 L 981.03125,526.875 981.03125,527.875 z M 1357.2812,527.875 C 1357.2813,565.57292 1357.2812,603.27083 1357.2812,640.96875 1370.6563,640.96875 1384.0313,640.96875 1397.4062,640.96875 1397.4062,602.60417 1397.4063,564.23958 1397.4062,525.875 1384.0313,525.875 1370.6563,525.875 1357.2812,525.875 L 1357.2812,526.875 1357.2812,527.875 z M 1455.9688,528.5625 C 1469.3226,564.48919 1482.9679,600.38295 1496.1875,636.3125 1494.4803,643.8023 1489.1197,653.20222 1480.125,651.65625 1474.663,651.60016 1469.3501,650.19716 1464.0625,648.96875 1464.0625,660.47917 1464.0625,671.98958 1464.0625,683.5 1483.8208,689.85485 1509.5267,686.51671 1521.3672,667.8242 1533.9332,648.43831 1537.6295,624.98918 1546.4911,603.85699 1553.4401,584.0394 1560.3904,564.22231 1567.3438,544.40625 1568.8236,549.2493 1563.7139,560.6819 1571.3438,559.375 1581.4375,559.375 1591.5312,559.375 1601.625,559.375 1589.3827,579.04967 1575.1963,597.88413 1564.4688,618.375 1564.4687,625.90625 1564.4688,633.4375 1564.4688,640.96875 1593.7396,640.96875 1623.0104,640.96875 1652.2812,640.96875 1652.2813,629.8125 1652.2812,618.65625 1652.2812,607.5 1639.7604,607.5 1627.2396,607.5 1614.7188,607.5 1626.6021,588.39759 1640.1884,570.04849 1650.5312,550.125 1650.5312,542.04167 1650.5313,533.95833 1650.5312,525.875 1610.3021,525.875 1570.0729,525.875 1529.8438,525.875 1524.8929,544.09194 1519.5109,562.1886 1514.5625,580.40625 1509.5438,562.12705 1503.9237,544.14247 1498.9688,525.875 1484.3021,525.875 1469.6354,525.875 1454.9688,525.875 1455.3021,526.77083 1455.6354,527.66667 1455.9688,528.5625 z M 1707.625,555.8125 C 1713.4609,555.26028 1718.1742,560.19933 1719.375,565.59375 1711.9209,565.44645 1704.4119,566.44285 1697,565.40625 1698.1918,560.5692 1702.2627,555.79472 1707.625,555.8125 z M 917.78125,558.34375 C 925.56188,558.6363 927.64577,568.33253 927.657,574.623 928.17303,585.59908 929.98717,599.11414 921.25,607.40625 914.81833,610.32258 907.36077,604.33585 907.78125,597.53125 905.70593,585.59405 904.89659,572.10387 910.5625,561.09375 912.36342,559.02251 915.13464,558.35255 917.78125,558.34375 z M 1176.6875,558.53125 C 1185.8968,557.84445 1189.439,568.60836 1189.0593,576.05839 1189.8507,586.52261 1190.8074,599.20007 1182.5625,607.03125 1175.8444,610.89684 1166.2146,605.77287 1166.3438,597.96875 1163.9882,585.83165 1162.847,571.59271 1170.0312,560.84375 1171.8773,559.25546 1174.304,558.66365 1176.6875,558.53125 z M 1289.4062,558.6875 C 1298.506,558.33292 1301.6007,568.96148 1301.2188,576.34375 1301.9579,586.53351 1303.1382,598.9557 1295.75,606.875 1289.6079,611.1333 1279.6316,606.96342 1279.5625,599.28125 1276.798,586.75132 1276.0749,571.99354 1283.2812,560.8125 1284.8907,559.28863 1287.2304,558.67307 1289.4062,558.6875 z"
       id="path4088"
       inkscape:connector-curvature="0" />
    <path
       sodipodi:type="arc"
       style="fill:url(#radialGradient3965);fill-opacity:1;fill-rule:evenodd;stroke:none"
       id="path3957"
       sodipodi:cx="398.57144"
       sodipodi:cy="688.57141"
       sodipodi:rx="222.85715"
       sodipodi:ry="74.285713"
       d="M 621.42859,688.57141 C 621.42859,729.59828 521.65205,762.85712 398.57144,762.85712 275.49084,762.85712 175.71429,729.59828 175.71429,688.57141 175.71429,647.54454 275.49084,614.2857 398.57144,614.2857 521.65205,614.2857 621.42859,647.54454 621.42859,688.57141 z"
       transform="matrix(1.5833334,0,0,1.390244,-189.64286,-238.92004)" />
    <g
       transform="matrix(0.60682113,0,0,0.60682113,115.5765,214.70977)"
       id="layer1-6"
       inkscape:label="Layer 1">
      <g
         transform="matrix(2.9047619,0,0,2.9047619,-583.18141,-939.19202)"
         id="g3990">
        <rect
           rx="5.8569784"
           transform="matrix(0.5,0.8660254,-0.8660254,0.5,0,0)"
           ry="5.8569784"
           y="-115.62556"
           x="524.72375"
           height="11.713957"
           width="72.0886"
           id="rect3929"
           style="fill:#555555;fill-opacity:1;fill-rule:evenodd;stroke:none" />
        <rect
           style="fill:#555555;fill-opacity:1;fill-rule:evenodd;stroke:none"
           id="rect3931"
           width="72.0886"
           height="11.713957"
           x="139.27733"
           y="551.9873"
           ry="5.8569784"
           transform="matrix(-0.5,0.8660254,0.8660254,0.5,0,0)"
           rx="5.8569784" />
        <path
           inkscape:connector-curvature="0"
           style="fill:#161817;fill-opacity:1;fill-rule:evenodd;stroke:none"
           d="M 357.46875,400.75 C 356.87013,400.76617 356.27188,400.8871 355.6875,401.09375 354.30915,402.91351 354.06446,405.42371 355.28125,407.53125 L 385.46875,459.8125 C 386.90981,462.30849 389.88346,463.37465 392.5,462.4375 392.5053,462.4305 392.49473,462.41327 392.5,462.40625 393.86428,460.58803 394.11836,458.06818 392.90625,455.96875 L 362.71875,403.6875 C 361.60336,401.75559 359.54493,400.69392 357.46875,400.75 z"
           id="rect3888" />
        <path
           inkscape:connector-curvature="0"
           style="fill:#161817;fill-opacity:1;fill-rule:evenodd;stroke:none"
           d="M 407.40625,400.75 C 406.8671,400.78769 406.35064,400.91111 405.84375,401.09375 405.70307,401.28152 405.58911,401.47903 405.46875,401.6875 L 375.28125,453.96875 C 373.65887,456.7788 374.62745,460.34637 377.4375,461.96875 378.99654,462.86886 380.77971,462.96979 382.34375,462.40625 382.47586,462.22753 382.60488,462.00974 382.71875,461.8125 L 412.90625,409.53125 C 414.52863,406.7212 413.56005,403.15363 410.75,401.53125 409.69623,400.92286 408.53068,400.6714 407.40625,400.75 z"
           id="rect3890" />
        <path
           sodipodi:type="arc"
           style="fill:#161817;fill-opacity:1;fill-rule:evenodd;stroke:none"
           id="path3886"
           sodipodi:cx="567.26379"
           sodipodi:cy="457.95053"
           sodipodi:rx="40.974312"
           sodipodi:ry="27.968599"
           d="M 608.23811,457.95053 C 608.23811,473.39716 589.89328,485.91913 567.26379,485.91913 544.63431,485.91913 526.28948,473.39716 526.28948,457.95053 526.28948,442.5039 544.63431,429.98193 567.26379,429.98193 589.89328,429.98193 608.23811,442.5039 608.23811,457.95053 z"
           transform="matrix(0.84310727,0,0,1.2138878,-92.54997,-92.645519)" />
        <path
           style="fill:url(#linearGradient4009);fill-opacity:1;fill-rule:evenodd;stroke:none"
           d="M 385.71875,429.3125 C 378.9886,429.3125 372.71707,431.1973 367.40625,434.46875 370.56889,433.39845 373.96755,432.8125 377.5,432.8125 394.60664,432.8125 408.46875,446.438 408.46875,463.25 408.46875,480.062 394.60664,493.6875 377.5,493.6875 373.96755,493.6875 370.56889,493.10155 367.40625,492.03125 372.71707,495.3027 378.9886,497.21875 385.71875,497.21875 404.79784,497.21875 420.25,482.00048 420.25,463.25 420.25,444.49952 404.79784,429.3125 385.71875,429.3125 z"
           id="path3915"
           inkscape:connector-curvature="0" />
        <rect
           style="fill:#515352;fill-opacity:1;fill-rule:evenodd;stroke:none"
           id="rect3087"
           width="170.75763"
           height="143.19635"
           x="300.25253"
           y="445.68112"
           ry="6.8705316" />
        <rect
           ry="6.6958385"
           y="449.32208"
           x="300.25253"
           height="139.55539"
           width="166.71703"
           id="rect3089"
           style="fill:#292c2a;fill-opacity:1;fill-rule:evenodd;stroke:none" />
        <path
           inkscape:connector-curvature="0"
           style="fill:url(#linearGradient4011);fill-opacity:1;fill-rule:evenodd;stroke:none"
           d="M 300.25,515.4375 300.25,582.1875 C 300.25,585.89699 303.22801,588.875 306.9375,588.875 L 431.6875,588.875 300.25,515.4375 z"
           id="rect3973" />
        <path
           style="fill:#bbbbbb;fill-opacity:1;fill-rule:evenodd;stroke:none"
           d="M 322.7178,467.11893 C 322.7178,467.11893 353.95841,461.11893 385.63135,461.11893 417.30429,461.11893 448.54491,467.11893 448.54491,467.11893 448.54491,467.11893 454.54491,488.57069 454.54491,517.2793 454.54491,545.98791 448.54491,567.43967 448.54491,567.43967 448.54491,567.43967 415.78906,573.43967 385.63135,573.43967 355.47364,573.43967 322.7178,567.43967 322.7178,567.43967 322.7178,567.43967 316.7178,545.73537 316.7178,517.2793 316.7178,488.82323 322.7178,467.11893 322.7178,467.11893 z"
           id="rect3862"
           inkscape:connector-curvature="0"
           sodipodi:nodetypes="czczczczc" />
        <g
           id="g3875"
           transform="translate(-180,0)">
          <path
             d="M 548.00776,546.02319 C 548.00776,551.67185 543.42862,556.25099 537.77997,556.25099 532.13131,556.25099 527.55217,551.67185 527.55217,546.02319 527.55217,540.37454 532.13131,535.7954 537.77997,535.7954 543.42862,535.7954 548.00776,540.37454 548.00776,546.02319 z"
             sodipodi:ry="10.227795"
             sodipodi:rx="10.227795"
             sodipodi:cy="546.02319"
             sodipodi:cx="537.77997"
             id="path3865"
             style="fill:#111111;fill-opacity:1;fill-rule:evenodd;stroke:none"
             sodipodi:type="arc" />
          <path
             transform="translate(28,-28)"
             sodipodi:type="arc"
             style="fill:#111111;fill-opacity:1;fill-rule:evenodd;stroke:none"
             id="path3867"
             sodipodi:cx="537.77997"
             sodipodi:cy="546.02319"
             sodipodi:rx="10.227795"
             sodipodi:ry="10.227795"
             d="M 548.00776,546.02319 C 548.00776,551.67185 543.42862,556.25099 537.77997,556.25099 532.13131,556.25099 527.55217,551.67185 527.55217,546.02319 527.55217,540.37454 532.13131,535.7954 537.77997,535.7954 543.42862,535.7954 548.00776,540.37454 548.00776,546.02319 z" />
          <path
             d="M 548.00776,546.02319 C 548.00776,551.67185 543.42862,556.25099 537.77997,556.25099 532.13131,556.25099 527.55217,551.67185 527.55217,546.02319 527.55217,540.37454 532.13131,535.7954 537.77997,535.7954 543.42862,535.7954 548.00776,540.37454 548.00776,546.02319 z"
             sodipodi:ry="10.227795"
             sodipodi:rx="10.227795"
             sodipodi:cy="546.02319"
             sodipodi:cx="537.77997"
             id="path3869"
             style="fill:#111111;fill-opacity:1;fill-rule:evenodd;stroke:none"
             sodipodi:type="arc"
             transform="translate(0,-56)" />
          <path
             transform="translate(56,-56)"
             sodipodi:type="arc"
             style="fill:#111111;fill-opacity:1;fill-rule:evenodd;stroke:none"
             id="path3871"
             sodipodi:cx="537.77997"
             sodipodi:cy="546.02319"
             sodipodi:rx="10.227795"
             sodipodi:ry="10.227795"
             d="M 548.00776,546.02319 C 548.00776,551.67185 543.42862,556.25099 537.77997,556.25099 532.13131,556.25099 527.55217,551.67185 527.55217,546.02319 527.55217,540.37454 532.13131,535.7954 537.77997,535.7954 543.42862,535.7954 548.00776,540.37454 548.00776,546.02319 z" />
          <path
             d="M 548.00776,546.02319 C 548.00776,551.67185 543.42862,556.25099 537.77997,556.25099 532.13131,556.25099 527.55217,551.67185 527.55217,546.02319 527.55217,540.37454 532.13131,535.7954 537.77997,535.7954 543.42862,535.7954 548.00776,540.37454 548.00776,546.02319 z"
             sodipodi:ry="10.227795"
             sodipodi:rx="10.227795"
             sodipodi:cy="546.02319"
             sodipodi:cx="537.77997"
             id="path3873"
             style="fill:#111111;fill-opacity:1;fill-rule:evenodd;stroke:none"
             sodipodi:type="arc"
             transform="translate(56,0)" />
        </g>
        <path
           inkscape:connector-curvature="0"
           style="fill:url(#linearGradient4013);fill-opacity:1;fill-rule:evenodd;stroke:none"
           d="M 385.625,461.125 C 353.95206,461.125 322.71875,467.125 322.71875,467.125 322.71875,467.125 320.51782,475.12893 318.78125,487.75 325.88712,486.59965 333.21011,485.96875 340.71875,485.96875 393.24989,485.96875 437.52882,515.48641 451.09375,555.71875 452.72926,546.68124 454.53125,533.09609 454.53125,517.28125 454.53125,488.57264 448.53125,467.125 448.53125,467.125 448.53125,467.125 417.29794,461.125 385.625,461.125 z"
           id="path3941" />
      </g>
    </g>
    <g
       transform="matrix(1.3115531,0,0,1.3115531,-98.9495,0.79894433)"
       style="font-size:144px;font-style:normal;font-variant:normal;font-weight:bold;font-stretch:normal;line-height:125%;letter-spacing:0px;word-spacing:0px;fill:#ebeff0;fill-opacity:1;stroke:none;font-family:Droid Sans;-inkscape-font-specification:Droid Sans Bold"
       id="flowRoot3149">
      <path
         d="M 720.70312,483.53188 661.5,483.53188 661.5,380.735 720.70312,380.735 720.70312,398.59438 683.29687,398.59438 683.29687,421.16469 718.10156,421.16469 718.10156,439.02407 683.29687,439.02407 683.29687,465.53188 720.70312,465.53188 720.70312,483.53188"
         style="fill:#ebeff0;stroke:none;font-family:Droid Sans;-inkscape-font-specification:Droid Sans Bold;fill-opacity:1"
         id="path4040"
         inkscape:connector-curvature="0" />
      <path
         d="M 781.875,484.93813 C 779.29682,484.93813 776.97651,484.65688 774.91406,484.09438 772.89839,483.53188 771.09371,482.78188 769.5,481.84438 767.90621,480.90688 766.49996,479.8522 765.28125,478.68032 764.06247,477.46157 762.9609,476.19595 761.97656,474.88344 L 760.85156,474.88344 C 761.03903,476.52407 761.22653,478.07095 761.41406,479.52407 761.55466,480.74282 761.67184,482.00844 761.76562,483.32094 761.90622,484.58657 761.97653,485.57094 761.97656,486.27407 L 761.97656,518.12563 740.53125,518.12563 740.53125,404.9225 757.96875,404.9225 760.99219,415.11782 761.97656,415.11782 C 762.9609,413.52414 764.0859,412.02414 765.35156,410.61782 766.61715,409.21164 768.07027,407.99289 769.71094,406.96157 771.3984,405.88352 773.29683,405.03977 775.40625,404.43032 777.51558,403.77415 779.85932,403.44602 782.4375,403.44594 786.51557,403.44602 790.21869,404.31321 793.54687,406.0475 796.87493,407.78195 799.7343,410.36008 802.125,413.78188 804.51555,417.20382 806.36711,421.446 807.67969,426.50844 808.99211,431.57099 809.64836,437.43036 809.64844,444.08657 809.64836,450.78972 808.96867,456.69597 807.60937,461.80532 806.24992,466.86783 804.32805,471.13345 801.84375,474.60219 799.40618,478.02407 796.4765,480.60219 793.05469,482.33657 789.67963,484.07094 785.95307,484.93813 781.875,484.93813 M 775.19531,420.60219 C 772.80464,420.60225 770.76558,421.04757 769.07812,421.93813 767.43746,422.78194 766.10153,424.071 765.07031,425.80532 764.03903,427.53975 763.28903,429.74287 762.82031,432.41469 762.35153,435.03974 762.07028,438.11005 761.97656,441.62563 L 761.97656,443.94594 C 761.97653,447.74285 762.18747,451.11785 762.60937,454.07094 763.07809,457.02409 763.82809,459.50847 764.85937,461.52407 765.89059,463.49284 767.24996,464.99284 768.9375,466.02407 770.67183,467.05533 772.80464,467.57096 775.33594,467.57094 779.60151,467.57096 782.7187,465.55533 784.6875,461.52407 786.70307,457.44597 787.71088,451.53972 787.71094,443.80532 787.71088,436.07099 786.70307,430.28193 784.6875,426.43813 782.7187,422.54757 779.55464,420.60225 775.19531,420.60219"
         style="fill:#ebeff0;stroke:none;font-family:Droid Sans;-inkscape-font-specification:Droid Sans Bold;fill-opacity:1"
         id="path4042"
         inkscape:connector-curvature="0" />
      <path
         d="M 827.08594,384.60219 C 827.08593,382.58667 827.39061,380.92261 828,379.61 828.60936,378.25073 829.42967,377.17261 830.46094,376.37563 831.53905,375.53199 832.78123,374.94605 834.1875,374.61782 835.64061,374.2898 837.16404,374.12574 838.75781,374.12563 840.35154,374.12574 841.85154,374.2898 843.25781,374.61782 844.66403,374.94605 845.88278,375.53199 846.91406,376.37563 847.99216,377.17261 848.83591,378.25073 849.44531,379.61 850.10153,380.92261 850.42965,382.58667 850.42969,384.60219 850.42965,386.57104 850.10153,388.2351 849.44531,389.59438 848.83591,390.95385 847.99216,392.05541 846.91406,392.89907 845.88278,393.69603 844.66403,394.28197 843.25781,394.65688 841.85154,394.98509 840.35154,395.14916 838.75781,395.14907 837.16404,395.14916 835.64061,394.98509 834.1875,394.65688 832.78123,394.28197 831.53905,393.69603 830.46094,392.89907 829.42967,392.05541 828.60936,390.95385 828,389.59438 827.39061,388.2351 827.08593,386.57104 827.08594,384.60219 M 849.44531,483.53188 828,483.53188 828,404.9225 849.44531,404.9225 849.44531,483.53188"
         style="fill:#ebeff0;stroke:none;font-family:Droid Sans;-inkscape-font-specification:Droid Sans Bold;fill-opacity:1"
         id="path4044"
         inkscape:connector-curvature="0" />
      <path
         d="M 924.25781,460.18813 C 924.25775,464.31315 923.50775,467.92252 922.00781,471.01625 920.50775,474.11001 918.37494,476.68814 915.60937,478.75063 912.8437,480.81313 909.49214,482.36001 905.55469,483.39125 901.61715,484.4225 897.2109,484.93813 892.33594,484.93813 889.75778,484.93813 887.36716,484.84438 885.16406,484.65688 882.96092,484.51625 880.87498,484.25844 878.90625,483.88344 876.93748,483.50844 875.03905,483.03969 873.21094,482.47719 871.3828,481.91469 869.53124,481.21157 867.65625,480.36782 L 867.65625,462.64907 C 869.62499,463.63346 871.68749,464.52409 873.84375,465.32094 876.04686,466.11783 878.22654,466.82096 880.38281,467.43032 882.53904,467.99283 884.62498,468.43814 886.64062,468.76625 888.7031,469.09439 890.60153,469.25846 892.33594,469.25844 894.25778,469.25846 895.8984,469.09439 897.25781,468.76625 898.61715,468.39127 899.71871,467.89908 900.5625,467.28969 901.45308,466.63346 902.0859,465.88346 902.46094,465.03969 902.88277,464.14909 903.09371,463.21159 903.09375,462.22719 903.09371,461.24284 902.92965,460.37565 902.60156,459.62563 902.32027,458.82878 901.64058,458.00847 900.5625,457.16469 899.48434,456.27409 897.89059,455.28972 895.78125,454.21157 893.71872,453.0866 890.92966,451.72722 887.41406,450.13344 883.99216,448.5866 881.0156,447.06317 878.48437,445.56313 875.99998,444.01629 873.93749,442.30536 872.29687,440.43032 870.70311,438.55536 869.5078,436.42255 868.71094,434.03188 867.91406,431.59443 867.51562,428.71162 867.51562,425.38344 867.51562,421.72725 868.21874,418.53976 869.625,415.82094 871.03124,413.05539 873.02343,410.75851 875.60156,408.93032 878.17967,407.10227 881.27342,405.74289 884.88281,404.85219 888.53903,403.91477 892.59372,403.44602 897.04687,403.44594 901.73433,403.44602 906.18745,403.98508 910.40625,405.06313 914.62495,406.14133 918.96088,407.75852 923.41406,409.91469 L 916.94531,425.10219 C 913.38276,423.41475 909.98433,422.03194 906.75,420.95375 903.51558,419.87569 900.28121,419.33663 897.04687,419.33657 894.14059,419.33663 892.03122,419.85226 890.71875,420.88344 889.4531,421.91475 888.82028,423.321 888.82031,425.10219 888.82028,426.03975 888.98435,426.8835 889.3125,427.63344 889.6406,428.33662 890.29685,429.08662 891.28125,429.88344 892.26559,430.63349 893.6484,431.47724 895.42969,432.41469 897.2109,433.30537 899.53121,434.40693 902.39062,435.71938 905.7187,437.17255 908.7187,438.62567 911.39062,440.07875 914.06245,441.48505 916.35932,443.10223 918.28125,444.93032 920.20307,446.75848 921.67963,448.89129 922.71094,451.32875 923.74212,453.76628 924.25775,456.71941 924.25781,460.18813"
         style="fill:#ebeff0;stroke:none;font-family:Droid Sans;-inkscape-font-specification:Droid Sans Bold;fill-opacity:1"
         id="path4046"
         inkscape:connector-curvature="0" />
      <path
         d="M 958.92187,444.08657 C 958.92185,451.91472 960.02341,457.82097 962.22656,461.80532 964.42965,465.74283 968.01559,467.71158 972.98437,467.71157 977.9062,467.71158 981.4687,465.7194 983.67187,461.735 985.87494,457.75065 986.97651,451.86785 986.97656,444.08657 986.97651,436.25849 985.87494,430.42256 983.67187,426.57875 981.4687,422.68819 977.85933,420.74288 972.84375,420.74282 967.92184,420.74288 964.35934,422.68819 962.15625,426.57875 959.99997,430.42256 958.92185,436.25849 958.92187,444.08657 M 1008.8437,444.08657 C 1008.8437,450.6491 1007.9999,456.46159 1006.3125,461.52407 1004.6718,466.58658 1002.2812,470.8522 999.14062,474.32094 996.04681,477.7897 992.24994,480.43813 987.75,482.26625 983.29682,484.0475 978.2812,484.93813 972.70312,484.93813 967.49996,484.93813 962.71872,484.0475 958.35937,482.26625 953.99998,480.43813 950.22654,477.7897 947.03906,474.32094 943.89842,470.8522 941.43749,466.58658 939.65625,461.52407 937.87499,456.46159 936.98437,450.6491 936.98437,444.08657 936.98437,437.57099 937.80468,431.78193 939.44531,426.71938 941.1328,421.65694 943.52342,417.41476 946.61719,413.99282 949.75779,410.52414 953.55466,407.89914 958.00781,406.11782 962.4609,404.33665 967.49996,403.44602 973.125,403.44594 978.32808,403.44602 983.10932,404.33665 987.46875,406.11782 991.82806,407.89914 995.57806,410.52414 998.71875,413.99282 1001.9062,417.41476 1004.3906,421.65694 1006.1719,426.71938 1007.953,431.78193 1008.8437,437.57099 1008.8437,444.08657"
         style="fill:#ebeff0;stroke:none;font-family:Droid Sans;-inkscape-font-specification:Droid Sans Bold;fill-opacity:1"
         id="path4048"
         inkscape:connector-curvature="0" />
      <path
         d="M 1050.5391,484.93813 C 1046.5078,484.93813 1042.8281,484.07094 1039.5,482.33657 1036.1719,480.60219 1033.3125,478.04751 1030.9219,474.6725 1028.5312,471.25064 1026.6562,467.00846 1025.2969,461.94594 1023.9844,456.88347 1023.3281,451.0241 1023.3281,444.36782 1023.3281,437.61786 1023.9844,431.71162 1025.2969,426.64907 1026.6562,421.53975 1028.5547,417.27413 1030.9922,413.85219 1033.4765,410.38351 1036.4297,407.78195 1039.8516,406.0475 1043.2734,404.31321 1047.0468,403.44602 1051.1719,403.44594 1053.7031,403.44602 1056.0234,403.75071 1058.1328,404.36 1060.2421,404.92258 1062.1406,405.74289 1063.8281,406.82094 1065.5156,407.85227 1067.0156,409.07102 1068.3281,410.47719 1069.6874,411.83664 1070.8828,413.33664 1071.9141,414.97719 L 1072.6172,414.97719 C 1072.3359,413.14914 1072.0781,411.29758 1071.8438,409.4225 1071.6093,407.82883 1071.3984,406.14133 1071.2109,404.36 1071.0703,402.53196 1070.9999,400.84446 1071,399.2975 L 1071,374.12563 1092.4453,374.12563 1092.4453,483.53188 1076.0625,483.53188 1071.9141,473.33657 1071,473.33657 C 1070.0156,474.93033 1068.8906,476.45376 1067.625,477.90688 1066.3593,479.31313 1064.8828,480.53188 1063.1953,481.56313 1061.5546,482.59438 1059.6796,483.41469 1057.5703,484.02407 1055.5078,484.63344 1053.164,484.93813 1050.5391,484.93813 M 1058.3438,467.85219 C 1060.875,467.85221 1063.0312,467.43033 1064.8125,466.58657 1066.5937,465.69596 1068.0234,464.38346 1069.1016,462.64907 1070.2265,460.86784 1071.0468,458.66472 1071.5625,456.03969 1072.1249,453.41472 1072.4296,450.34441 1072.4766,446.82875 L 1072.4766,444.50844 C 1072.4765,440.71161 1072.2421,437.33661 1071.7734,434.38344 1071.3046,431.43037 1070.5312,428.96943 1069.4531,427.00063 1068.3749,424.98506 1066.9218,423.46163 1065.0938,422.43032 1063.2656,421.39913 1060.9687,420.8835 1058.2031,420.88344 1053.7031,420.8835 1050.3984,422.92256 1048.2891,427.00063 1046.1797,431.03193 1045.125,436.91474 1045.125,444.64907 1045.125,452.38347 1046.1797,458.19597 1048.2891,462.08657 1050.4453,465.93033 1053.7968,467.85221 1058.3438,467.85219"
         style="fill:#ebeff0;stroke:none;font-family:Droid Sans;-inkscape-font-specification:Droid Sans Bold;fill-opacity:1"
         id="path4050"
         inkscape:connector-curvature="0" />
      <path
         d="M 1113.9609,384.60219 C 1113.9609,382.58667 1114.2656,380.92261 1114.875,379.61 1115.4844,378.25073 1116.3047,377.17261 1117.3359,376.37563 1118.414,375.53199 1119.6562,374.94605 1121.0625,374.61782 1122.5156,374.2898 1124.039,374.12574 1125.6328,374.12563 1127.2265,374.12574 1128.7265,374.2898 1130.1328,374.61782 1131.539,374.94605 1132.7578,375.53199 1133.7891,376.37563 1134.8672,377.17261 1135.7109,378.25073 1136.3203,379.61 1136.9765,380.92261 1137.3047,382.58667 1137.3047,384.60219 1137.3047,386.57104 1136.9765,388.2351 1136.3203,389.59438 1135.7109,390.95385 1134.8672,392.05541 1133.7891,392.89907 1132.7578,393.69603 1131.539,394.28197 1130.1328,394.65688 1128.7265,394.98509 1127.2265,395.14916 1125.6328,395.14907 1124.039,395.14916 1122.5156,394.98509 1121.0625,394.65688 1119.6562,394.28197 1118.414,393.69603 1117.3359,392.89907 1116.3047,392.05541 1115.4844,390.95385 1114.875,389.59438 1114.2656,388.2351 1113.9609,386.57104 1113.9609,384.60219 M 1136.3203,483.53188 1114.875,483.53188 1114.875,404.9225 1136.3203,404.9225 1136.3203,483.53188"
         style="fill:#ebeff0;stroke:none;font-family:Droid Sans;-inkscape-font-specification:Droid Sans Bold;fill-opacity:1"
         id="path4052"
         inkscape:connector-curvature="0" />
      <path
         d="M 1180.1953,483.53188 1158.75,483.53188 1158.75,374.12563 1180.1953,374.12563 1180.1953,483.53188"
         style="fill:#ebeff0;stroke:none;font-family:Droid Sans;-inkscape-font-specification:Droid Sans Bold;fill-opacity:1"
         id="path4054"
         inkscape:connector-curvature="0" />
      <path
         d="M 1191.375,404.9225 1214.8594,404.9225 1227.5156,449.14907 C 1228.2656,451.5866 1228.8047,454.18816 1229.1328,456.95375 1229.5078,459.7194 1229.7421,462.20378 1229.8359,464.40688 L 1230.2578,464.40688 C 1230.3515,463.32877 1230.4687,462.13346 1230.6094,460.82094 1230.7968,459.50847 1231.0078,458.17253 1231.2422,456.81313 1231.4765,455.45378 1231.7343,454.11785 1232.0156,452.80532 1232.3437,451.44597 1232.6718,450.22722 1233,449.14907 L 1245.375,404.9225 1269,404.9225 1237.9219,493.58657 C 1235.0156,501.88342 1231.0546,508.04748 1226.0391,512.07875 1221.0234,516.10997 1214.7422,518.12559 1207.1953,518.12563 1204.7578,518.12559 1202.6484,517.98497 1200.8672,517.70375 1199.0859,517.46935 1197.5625,517.21153 1196.2969,516.93032 L 1196.2969,499.91469 C 1197.2812,500.14905 1198.5234,500.35999 1200.0234,500.5475 1201.5234,500.73499 1203.0937,500.82874 1204.7344,500.82875 1206.9844,500.82874 1208.9062,500.52405 1210.5,499.91469 1212.0937,499.3053 1213.4531,498.43811 1214.5781,497.31313 1215.75,496.23499 1216.7343,494.92249 1217.5313,493.37563 1218.375,491.82875 1219.1015,490.09437 1219.7109,488.1725 L 1221.0469,484.235 1191.375,404.9225"
         style="fill:#ebeff0;stroke:none;font-family:Droid Sans;-inkscape-font-specification:Droid Sans Bold;fill-opacity:1"
         id="path4056"
         inkscape:connector-curvature="0" />
      <path
         d="M 1330.6641,483.53188 1272.8672,483.53188 1272.8672,470.87563 1305,421.30532 1275.0469,421.30532 1275.0469,404.9225 1329.3281,404.9225 1329.3281,418.84438 1298.25,467.14907 1330.6641,467.14907 1330.6641,483.53188"
         style="fill:#ebeff0;stroke:none;font-family:Droid Sans;-inkscape-font-specification:Droid Sans Bold;fill-opacity:1"
         id="path4058"
         inkscape:connector-curvature="0" />
      <path
         d="M 1377.8438,418.70375 C 1374.0468,418.70382 1370.8828,420.03976 1368.3516,422.71157 1365.8672,425.3835 1364.4375,429.57881 1364.0625,435.2975 L 1391.4141,435.2975 C 1391.3671,432.90693 1391.0624,430.70381 1390.5,428.68813 1389.9374,426.67256 1389.0937,424.93819 1387.9688,423.485 1386.8437,421.98507 1385.4374,420.81319 1383.75,419.96938 1382.0625,419.12569 1380.0937,418.70382 1377.8438,418.70375 M 1380.5859,484.93813 C 1374.9609,484.93813 1369.7812,484.11782 1365.0469,482.47719 1360.3125,480.83657 1356.2344,478.37563 1352.8125,475.09438 1349.3906,471.76627 1346.7187,467.5944 1344.7969,462.57875 1342.9219,457.51628 1341.9844,451.5866 1341.9844,444.78969 1341.9844,437.89911 1342.8516,431.87568 1344.5859,426.71938 1346.3203,421.56319 1348.7344,417.27413 1351.8281,413.85219 1354.9687,410.38351 1358.7187,407.78195 1363.0781,406.0475 1367.4843,404.31321 1372.3593,403.44602 1377.7031,403.44594 1382.9062,403.44602 1387.5937,404.2429 1391.7656,405.83657 1395.9843,407.38352 1399.5468,409.68039 1402.4531,412.72719 1405.4062,415.77413 1407.6562,419.52413 1409.2031,423.97719 1410.7968,428.3835 1411.5937,433.44599 1411.5938,439.16469 L 1411.5938,449.57094 1363.6406,449.57094 C 1363.7343,452.57097 1364.2031,455.28972 1365.0469,457.72719 1365.9375,460.11784 1367.1562,462.1569 1368.7031,463.84438 1370.2968,465.48502 1372.1953,466.75065 1374.3984,467.64125 1376.6484,468.53189 1379.2031,468.97721 1382.0625,468.97719 1384.4531,468.97721 1386.7031,468.86002 1388.8125,468.62563 1390.9687,468.34439 1393.0546,467.94596 1395.0703,467.43032 1397.0859,466.91471 1399.0781,466.2819 1401.0469,465.53188 1403.0156,464.73502 1405.0312,463.82096 1407.0938,462.78969 L 1407.0938,479.38344 C 1405.2187,480.36782 1403.3202,481.21157 1401.3984,481.91469 1399.5234,482.57094 1397.5312,483.13344 1395.4219,483.60219 1393.3124,484.07094 1391.039,484.39907 1388.6016,484.58657 1386.164,484.82094 1383.4921,484.93813 1380.5859,484.93813"
         style="fill:#ebeff0;stroke:none;font-family:Droid Sans;-inkscape-font-specification:Droid Sans Bold;fill-opacity:1"
         id="path4060"
         inkscape:connector-curvature="0" />
      <path
         d="M 1470.8672,403.44594 C 1471.4296,403.44602 1472.039,403.46946 1472.6953,403.51625 1473.3984,403.51633 1474.0546,403.56321 1474.6641,403.65688 1475.3203,403.70383 1475.9062,403.77415 1476.4219,403.86782 1476.9843,403.91477 1477.4062,403.98508 1477.6875,404.07875 L 1477.6875,424.18813 C 1477.3124,424.09444 1476.7968,424.00069 1476.1406,423.90688 1475.4843,423.81319 1474.7812,423.74288 1474.0313,423.69594 1473.3281,423.60225 1472.6249,423.55538 1471.9219,423.55532 1471.2187,423.5085 1470.6328,423.48506 1470.1641,423.485 1467.3984,423.48506 1464.8437,423.83663 1462.5,424.53969 1460.2031,425.24287 1458.2109,426.39131 1456.5234,427.985 1454.8828,429.53193 1453.5937,431.59443 1452.6563,434.1725 1451.7656,436.7038 1451.3203,439.82099 1451.3203,443.52407 L 1451.3203,483.53188 1429.875,483.53188 1429.875,404.9225 1446.1172,404.9225 1449.2813,416.735 1450.3359,416.735 C 1451.4609,414.71945 1452.6797,412.89132 1453.9922,411.25063 1455.3047,409.61008 1456.7578,408.22727 1458.3516,407.10219 1459.9921,405.93039 1461.8203,405.03977 1463.8359,404.43032 1465.8984,403.77415 1468.2421,403.44602 1470.8672,403.44594"
         style="fill:#ebeff0;stroke:none;font-family:Droid Sans;-inkscape-font-specification:Droid Sans Bold;fill-opacity:1"
         id="path4062"
         inkscape:connector-curvature="0" />
    </g>
  </g>
</svg>
